# xmcd CD database file
#
# Track frame offsets:
#	150
#	18600
#	31840
#	44810
#	64363
#	78258
#	93928
#	123468
#	137660
#	164095
#	177100
#
# Disc length: 2731 seconds
#
# Revision: 0
# Processed by: cddbd v1.5.1PL0 Copyright (c) Steve Scherf et al.
# Submitted via: CDex 1.51
#
DISCID=960aa90b
DTITLE=泉谷しげる - ホット・タイフーン・フロム・イースト
DYEAR=1990
DGENRE=New Age
TTITLE0=野良犬
TTITLE1=ねどこのせれなあで
TTITLE2=鏡の前のつぶやき
TTITLE3=春夏秋冬
TTITLE4=超人
TTITLE5=フリキレ　フリ
TTITLE6=ブルースを唄わないで
TTITLE7=Dのロック
TTITLE8=暁のL特急
TTITLE9=イーストからの熱い風
TTITLE10=コノママロック
EXTD=YEAR: 1990
EXTT0=
EXTT1=
EXTT2=
EXTT3=
EXTT4=
EXTT5=
EXTT6=
EXTT7=
EXTT8=
EXTT9=
EXTT10=
PLAYORDER=
